<svg width="280" height="300" viewBox="0 0 280 233" fill="none" xmlns="http://www.w3.org/2000/svg">
<path d="M212 132.368H5.84391C5.3136 132.367 4.80516 132.155 4.43017 131.779C4.05519 131.402 3.84427 130.892 3.84369 130.36V8.00796C3.84427 7.47559 4.05519 6.9652 4.43017 6.58876C4.80516 6.21232 5.3136 6.00058 5.84391 6H212C212.53 6.00058 213.038 6.21232 213.413 6.58876C213.788 6.9652 213.999 7.47559 214 8.00796V130.36C213.999 130.892 213.788 131.402 213.413 131.779C213.038 132.155 212.53 132.367 212 132.368V132.368ZM5.84391 6.80318C5.52572 6.80353 5.22066 6.93058 4.99567 7.15644C4.77068 7.3823 4.64412 7.68854 4.64378 8.00796V130.36C4.64412 130.679 4.77068 130.985 4.99567 131.211C5.22066 131.437 5.52572 131.564 5.84391 131.564H212C212.318 131.564 212.623 131.437 212.848 131.211C213.073 130.985 213.199 130.679 213.2 130.36V8.00796C213.199 7.68854 213.073 7.3823 212.848 7.15644C212.623 6.93058 212.318 6.80353 212 6.80318H5.84391Z" fill="#E6E6E6"/>
<path d="M137.827 15.3283C137.769 15.3871 137.736 15.4667 137.736 15.5498C137.736 15.6329 137.769 15.7126 137.827 15.7713L137.827 15.7713L139.167 17.1161H135.864C135.781 17.1163 135.702 17.1495 135.643 17.2082C135.585 17.2669 135.552 17.3464 135.552 17.4294C135.552 17.5123 135.585 17.5918 135.643 17.6505C135.702 17.7093 135.781 17.7424 135.864 17.7426H139.167L137.827 19.0874C137.798 19.1165 137.775 19.151 137.76 19.189C137.744 19.227 137.736 19.2677 137.736 19.3089C137.736 19.35 137.744 19.3908 137.76 19.4288C137.775 19.4668 137.798 19.5013 137.827 19.5304C137.856 19.5595 137.891 19.5826 137.928 19.5983C137.966 19.614 138.007 19.6221 138.048 19.6221C138.089 19.6221 138.129 19.614 138.167 19.5983C138.205 19.5826 138.24 19.5595 138.269 19.5304V19.5304L140.141 17.6509C140.199 17.5921 140.232 17.5124 140.232 17.4294C140.232 17.3463 140.199 17.2666 140.141 17.2078L138.269 15.3283C138.24 15.2992 138.205 15.2762 138.167 15.2604C138.129 15.2447 138.089 15.2366 138.048 15.2366C138.007 15.2366 137.966 15.2447 137.928 15.2604C137.891 15.2762 137.856 15.2992 137.827 15.3283L137.827 15.3283Z" fill="#E6E6E6"/>
<path d="M80.0164 15.3283C80.075 15.3871 80.1078 15.4667 80.1079 15.5498C80.1079 15.6329 80.075 15.7126 80.0165 15.7713L80.0164 15.7713L78.6769 17.1161H81.9802C82.0212 17.1159 82.0619 17.1239 82.0999 17.1396C82.1378 17.1552 82.1724 17.1782 82.2015 17.2073C82.2306 17.2364 82.2537 17.2709 82.2694 17.3089C82.2852 17.347 82.2934 17.3878 82.2934 17.429C82.2935 17.4702 82.2854 17.511 82.2697 17.5491C82.254 17.5872 82.231 17.6218 82.202 17.6509C82.173 17.68 82.1385 17.7031 82.1005 17.7189C82.0626 17.7346 82.0219 17.7427 81.9809 17.7426H78.6769L80.0164 19.0874C80.0454 19.1165 80.0684 19.151 80.0841 19.189C80.0998 19.227 80.1079 19.2678 80.1079 19.3089C80.1079 19.35 80.0998 19.3908 80.0841 19.4288C80.0684 19.4668 80.0454 19.5013 80.0165 19.5304C79.9875 19.5595 79.9531 19.5826 79.9152 19.5983C79.8774 19.614 79.8368 19.6222 79.7958 19.6222C79.7548 19.6222 79.7142 19.6141 79.6764 19.5983C79.6385 19.5826 79.6041 19.5595 79.5751 19.5304V19.5304L77.7028 17.6509C77.6443 17.5921 77.6115 17.5124 77.6115 17.4294C77.6115 17.3463 77.6443 17.2666 77.7028 17.2079L79.5751 15.3283C79.6337 15.2696 79.713 15.2366 79.7958 15.2366C79.8785 15.2366 79.9579 15.2696 80.0164 15.3283L80.0164 15.3283Z" fill="#E6E6E6"/>
<path d="M47.9819 32.0707H20.5122V50.8116H47.9819V32.0707Z" fill="#F1F1F1"/>
<path d="M85.3192 32.0707H57.8496V50.8116H85.3192V32.0707Z" fill="#F1F1F1"/>
<path d="M122.657 32.0707H95.187V50.8116H122.657V32.0707Z" fill="#F1F1F1"/>
<path d="M159.994 32.0707H132.524V50.8116H159.994V32.0707Z" fill="#F1F1F1"/>
<path d="M197.331 32.0707H169.862V50.8116H197.331V32.0707Z" fill="#F1F1F1"/>
<path d="M48.0826 65.0012H20.6129V83.7422H48.0826V65.0012Z" fill="#F1F1F1"/>
<path d="M85.42 65.0012H57.9503V83.7422H85.42V65.0012Z" fill="#F1F1F1"/>
<path d="M122.757 65.0012H95.2877V83.7422H122.757V65.0012Z" fill="#F1F1F1"/>
<path d="M160.095 65.0012H132.625V83.7422H160.095V65.0012Z" fill="#F1F1F1"/>
<path d="M197.432 65.0012H169.963V83.7422H197.432V65.0012Z" fill="#F1F1F1"/>
<path d="M48.1833 97.9318H20.7136V116.673H48.1833V97.9318Z" fill="#F1F1F1"/>
<path d="M85.5207 97.9318H58.051V116.673H85.5207V97.9318Z" fill="#F1F1F1"/>
<path d="M122.858 97.9318H95.3885V116.673H122.858V97.9318Z" fill="#F1F1F1"/>
<path d="M96.4801 98.7282C96.4769 98.5461 96.3977 98.3726 96.2595 98.2449C96.1213 98.1173 95.9353 98.0457 95.7415 98.0457C95.5476 98.0456 95.3616 98.1172 95.2234 98.2448C95.0851 98.3724 95.0059 98.5459 95.0026 98.728L95.0002 116.126C94.9973 116.31 95.072 116.487 95.208 116.619C95.344 116.751 95.5302 116.827 95.7257 116.83C95.9212 116.834 96.1102 116.764 96.2512 116.637C96.3921 116.51 96.4736 116.335 96.4777 116.151L96.4778 116.149C96.4779 116.142 96.4779 116.134 96.4778 116.126L96.4801 98.7282Z" fill="#EF5350"/>
<path d="M160.196 97.9318H132.726V116.673H160.196V97.9318Z" fill="#F1F1F1"/>
<path d="M197.533 97.9318H170.063V116.673H197.533V97.9318Z" fill="#F1F1F1"/>
<path d="M59.4801 65.8997C59.4769 65.7207 59.3976 65.55 59.2595 65.4245C59.1213 65.2989 58.9352 65.2286 58.7414 65.2285C58.5476 65.2285 58.3615 65.2988 58.2233 65.4244C58.0851 65.5499 58.0058 65.7205 58.0025 65.8995L58.0002 83.0102C57.9973 83.1909 58.072 83.3652 58.208 83.495C58.344 83.6248 58.5302 83.6996 58.7257 83.7028C58.9212 83.7061 59.1102 83.6376 59.2511 83.5124C59.3921 83.3872 59.4736 83.2154 59.4777 83.0348L59.4777 83.0328C59.4779 83.0254 59.4779 83.0179 59.4778 83.0104L59.4801 65.8997Z" fill="#EF5350"/>
<path d="M96.4801 32.7719C96.4769 32.5929 96.3976 32.4222 96.2594 32.2967C96.1213 32.1711 95.9352 32.1008 95.7414 32.1007C95.5476 32.1007 95.3615 32.171 95.2233 32.2965C95.0851 32.4221 95.0058 32.5927 95.0025 32.7717L95.0002 49.8824C94.9973 50.0631 95.072 50.2374 95.208 50.3672C95.344 50.497 95.5301 50.5718 95.7257 50.575C95.9212 50.5783 96.1102 50.5098 96.2511 50.3846C96.3921 50.2594 96.4736 50.0876 96.4777 49.907L96.4777 49.905C96.4779 49.8976 96.4779 49.8901 96.4778 49.8826L96.4801 32.7719Z" fill="#42A5F5"/>
<path d="M22.4801 32.6713C22.4769 32.4923 22.3976 32.3217 22.2594 32.1961C22.1213 32.0705 21.9352 32.0002 21.7414 32.0001C21.5476 32.0001 21.3615 32.0704 21.2233 32.196C21.0851 32.3215 21.0058 32.4921 21.0025 32.6711L21.0002 49.7818C20.9973 49.9625 21.072 50.1368 21.208 50.2666C21.344 50.3964 21.5301 50.4712 21.7257 50.4744C21.9212 50.4777 22.1102 50.4092 22.2511 50.284C22.3921 50.1588 22.4736 49.9871 22.4777 49.8064L22.4777 49.8045C22.4779 49.797 22.4779 49.7895 22.4778 49.782L22.4801 32.6713Z" fill="#42A5F5"/>
<path d="M59.4801 98.6356C59.4769 98.4538 59.3977 98.2805 59.2595 98.153C59.1213 98.0255 58.9353 97.954 58.7415 97.954C58.5476 97.954 58.3616 98.0254 58.2234 98.1529C58.0851 98.2803 58.0059 98.4536 58.0026 98.6354L58.0002 116.012C57.9973 116.196 58.072 116.373 58.208 116.504C58.344 116.636 58.5302 116.712 58.7257 116.715C58.9212 116.719 59.1102 116.649 59.2512 116.522C59.3921 116.395 59.4736 116.22 59.4777 116.037L59.4778 116.035C59.4779 116.027 59.4779 116.02 59.4778 116.012L59.4801 98.6356Z" fill="#4CAF50"/>
<path d="M134.48 65.9102C134.477 65.7284 134.398 65.555 134.26 65.4275C134.121 65.3 133.935 65.2286 133.741 65.2285C133.548 65.2285 133.362 65.2999 133.223 65.4274C133.085 65.5549 133.006 65.7282 133.003 65.91L133 83.2866C132.997 83.47 133.072 83.6471 133.208 83.7789C133.344 83.9108 133.53 83.9866 133.726 83.99C133.921 83.9933 134.11 83.9237 134.251 83.7966C134.392 83.6694 134.474 83.495 134.478 83.3116L134.478 83.3096C134.478 83.302 134.478 83.2944 134.478 83.2868L134.48 65.9102Z" fill="#4CAF50"/>
<path d="M171.48 32.7824C171.477 32.6006 171.398 32.4272 171.26 32.2997C171.121 32.1722 170.935 32.1008 170.741 32.1007C170.548 32.1007 170.362 32.1721 170.223 32.2996C170.085 32.4271 170.006 32.6004 170.003 32.7822L170 50.1588C169.997 50.3422 170.072 50.5193 170.208 50.6511C170.344 50.7829 170.53 50.8588 170.726 50.8621C170.921 50.8654 171.11 50.7959 171.251 50.6687C171.392 50.5416 171.474 50.3672 171.478 50.1838L171.478 50.1818C171.478 50.1742 171.478 50.1666 171.478 50.159L171.48 32.7824Z" fill="#FFCA28"/>
<path d="M22.4801 98.5471C22.4769 98.3662 22.3976 98.1937 22.2594 98.0668C22.1213 97.9399 21.9352 97.8688 21.7414 97.8688C21.5476 97.8688 21.3615 97.9398 21.2233 98.0667C21.0851 98.1935 21.0058 98.366 21.0025 98.5469L21.0002 115.838C20.9972 116.02 21.072 116.197 21.208 116.328C21.344 116.459 21.5301 116.534 21.7257 116.538C21.9212 116.541 22.1101 116.472 22.2511 116.345C22.3921 116.219 22.4736 116.045 22.4777 115.863L22.4777 115.861C22.4779 115.853 22.4779 115.846 22.4777 115.838L22.4801 98.5471Z" fill="#FFCA28"/>
<path d="M91.6321 20V12.7273H93.1697V15.728H96.2912V12.7273H97.8253V20H96.2912V16.9957H93.1697V20H91.6321ZM101.529 20.1065C100.978 20.1065 100.5 19.9893 100.098 19.755C99.6979 19.5182 99.389 19.1892 99.1712 18.7678C98.9534 18.344 98.8445 17.8527 98.8445 17.294C98.8445 16.7306 98.9534 16.2382 99.1712 15.8168C99.389 15.393 99.6979 15.0639 100.098 14.8295C100.5 14.5928 100.978 14.4744 101.529 14.4744C102.081 14.4744 102.557 14.5928 102.957 14.8295C103.359 15.0639 103.669 15.393 103.887 15.8168C104.105 16.2382 104.214 16.7306 104.214 17.294C104.214 17.8527 104.105 18.344 103.887 18.7678C103.669 19.1892 103.359 19.5182 102.957 19.755C102.557 19.9893 102.081 20.1065 101.529 20.1065ZM101.536 18.9347C101.787 18.9347 101.997 18.8636 102.165 18.7216C102.333 18.5772 102.46 18.3807 102.545 18.1321C102.632 17.8835 102.676 17.6006 102.676 17.2834C102.676 16.9661 102.632 16.6832 102.545 16.4347C102.46 16.1861 102.333 15.9896 102.165 15.8452C101.997 15.7008 101.787 15.6286 101.536 15.6286C101.283 15.6286 101.07 15.7008 100.897 15.8452C100.727 15.9896 100.598 16.1861 100.51 16.4347C100.425 16.6832 100.382 16.9661 100.382 17.2834C100.382 17.6006 100.425 17.8835 100.51 18.1321C100.598 18.3807 100.727 18.5772 100.897 18.7216C101.07 18.8636 101.283 18.9347 101.536 18.9347ZM105.197 20V14.5455H106.664V15.4972H106.721C106.82 15.1586 106.987 14.9029 107.222 14.7301C107.456 14.5549 107.726 14.4673 108.031 14.4673C108.107 14.4673 108.189 14.4721 108.276 14.4815C108.364 14.491 108.441 14.504 108.507 14.5206V15.8629C108.436 15.8416 108.338 15.8227 108.212 15.8061C108.087 15.7895 107.972 15.7812 107.868 15.7812C107.645 15.7812 107.446 15.8298 107.271 15.9268C107.098 16.0215 106.961 16.1541 106.859 16.3246C106.76 16.495 106.71 16.6915 106.71 16.9141V20H105.197ZM110.688 20.103C110.34 20.103 110.03 20.0426 109.758 19.9219C109.486 19.7988 109.27 19.6177 109.112 19.3786C108.955 19.1371 108.877 18.8364 108.877 18.4766C108.877 18.1735 108.933 17.919 109.044 17.7131C109.155 17.5071 109.307 17.3414 109.499 17.2159C109.691 17.0904 109.908 16.9957 110.152 16.9318C110.398 16.8679 110.656 16.8229 110.926 16.7969C111.244 16.7637 111.499 16.733 111.693 16.7045C111.887 16.6738 112.028 16.6288 112.116 16.5696C112.204 16.5104 112.247 16.4228 112.247 16.3068V16.2855C112.247 16.0606 112.176 15.8866 112.034 15.7635C111.895 15.6404 111.696 15.5788 111.438 15.5788C111.165 15.5788 110.949 15.6392 110.788 15.7599C110.627 15.8783 110.52 16.0275 110.468 16.2074L109.069 16.0938C109.14 15.7623 109.28 15.4759 109.488 15.2344C109.696 14.9905 109.965 14.8035 110.294 14.6733C110.626 14.5407 111.009 14.4744 111.445 14.4744C111.748 14.4744 112.038 14.5099 112.315 14.581C112.594 14.652 112.842 14.7621 113.057 14.9112C113.275 15.0604 113.446 15.2521 113.572 15.4865C113.697 15.7185 113.76 15.9967 113.76 16.321V20H112.325V19.2436H112.283C112.195 19.4141 112.078 19.5644 111.931 19.6946C111.785 19.8224 111.608 19.9231 111.402 19.9964C111.196 20.0675 110.958 20.103 110.688 20.103ZM111.122 19.0589C111.344 19.0589 111.541 19.0152 111.711 18.9276C111.882 18.8376 112.015 18.7169 112.112 18.5653C112.209 18.4138 112.258 18.2422 112.258 18.0504V17.4716C112.211 17.5024 112.146 17.5308 112.063 17.5568C111.982 17.5805 111.891 17.603 111.789 17.6243C111.687 17.6432 111.586 17.661 111.484 17.6776C111.382 17.6918 111.29 17.7048 111.207 17.7166C111.029 17.7427 110.874 17.7841 110.742 17.8409C110.609 17.8977 110.506 17.9747 110.433 18.0717C110.359 18.1664 110.323 18.2848 110.323 18.4268C110.323 18.6328 110.397 18.7902 110.546 18.8991C110.698 19.0057 110.89 19.0589 111.122 19.0589ZM114.934 20V14.5455H116.4V15.4972H116.457C116.557 15.1586 116.724 14.9029 116.958 14.7301C117.192 14.5549 117.462 14.4673 117.768 14.4673C117.843 14.4673 117.925 14.4721 118.013 14.4815C118.1 14.491 118.177 14.504 118.243 14.5206V15.8629C118.172 15.8416 118.074 15.8227 117.949 15.8061C117.823 15.7895 117.708 15.7812 117.604 15.7812C117.382 15.7812 117.183 15.8298 117.008 15.9268C116.835 16.0215 116.698 16.1541 116.596 16.3246C116.496 16.495 116.447 16.6915 116.447 16.9141V20H114.934ZM119.026 20V14.5455H120.538V20H119.026ZM119.786 13.8423C119.561 13.8423 119.368 13.7678 119.207 13.6186C119.048 13.4671 118.969 13.286 118.969 13.0753C118.969 12.867 119.048 12.6882 119.207 12.5391C119.368 12.3875 119.561 12.3118 119.786 12.3118C120.01 12.3118 120.202 12.3875 120.361 12.5391C120.522 12.6882 120.602 12.867 120.602 13.0753C120.602 13.286 120.522 13.4671 120.361 13.6186C120.202 13.7678 120.01 13.8423 119.786 13.8423ZM124.215 20.1065C123.663 20.1065 123.186 19.9893 122.784 19.755C122.383 19.5182 122.075 19.1892 121.857 18.7678C121.639 18.344 121.53 17.8527 121.53 17.294C121.53 16.7306 121.639 16.2382 121.857 15.8168C122.075 15.393 122.383 15.0639 122.784 14.8295C123.186 14.5928 123.663 14.4744 124.215 14.4744C124.766 14.4744 125.242 14.5928 125.642 14.8295C126.045 15.0639 126.355 15.393 126.573 15.8168C126.79 16.2382 126.899 16.7306 126.899 17.294C126.899 17.8527 126.79 18.344 126.573 18.7678C126.355 19.1892 126.045 19.5182 125.642 19.755C125.242 19.9893 124.766 20.1065 124.215 20.1065ZM124.222 18.9347C124.473 18.9347 124.682 18.8636 124.85 18.7216C125.018 18.5772 125.145 18.3807 125.23 18.1321C125.318 17.8835 125.362 17.6006 125.362 17.2834C125.362 16.9661 125.318 16.6832 125.23 16.4347C125.145 16.1861 125.018 15.9896 124.85 15.8452C124.682 15.7008 124.473 15.6286 124.222 15.6286C123.968 15.6286 123.755 15.7008 123.583 15.8452C123.412 15.9896 123.283 16.1861 123.195 16.4347C123.11 16.6832 123.068 16.9661 123.068 17.2834C123.068 17.6006 123.11 17.8835 123.195 18.1321C123.283 18.3807 123.412 18.5772 123.583 18.7216C123.755 18.8636 123.968 18.9347 124.222 18.9347Z" fill="#3F3D56"/>
<path d="M214.349 135.402C214.55 135.786 214.833 136.122 215.178 136.385C215.523 136.648 215.922 136.833 216.346 136.925C216.77 137.018 217.209 137.016 217.632 136.921C218.055 136.825 218.452 136.638 218.795 136.372L227.628 142.135L227.602 136.655L219.218 132.022C218.733 131.476 218.065 131.125 217.34 131.038C216.615 130.951 215.883 131.133 215.282 131.55C214.682 131.966 214.256 132.588 214.084 133.298C213.912 134.008 214.006 134.757 214.349 135.402L214.349 135.402Z" fill="#FFB6B6"/>
<path d="M258.675 229.1H254.886L253.083 214.483L258.676 214.484L258.675 229.1Z" fill="#FFB6B6"/>
<path d="M259.642 232.774L247.423 232.773V232.619C247.423 231.358 247.924 230.148 248.816 229.256C249.708 228.364 250.917 227.863 252.179 227.863H252.179L259.642 227.863L259.642 232.774Z" fill="#2F2E41"/>
<path d="M239.927 229.1H236.137L234.335 214.483L239.928 214.484L239.927 229.1Z" fill="#FFB6B6"/>
<path d="M240.894 232.774L228.674 232.773V232.619C228.674 231.358 229.176 230.148 230.067 229.256C230.959 228.364 232.169 227.863 233.43 227.863H233.431L240.894 227.863L240.894 232.774Z" fill="#2F2E41"/>
<path d="M235.553 154.512L231.777 192.192L233.665 224.716H240.965L242.441 194.122L248.182 177.393L251.523 203.174V224.164L259.828 224.549L262.584 173.154C262.584 173.154 263.521 158.779 261.652 157.018C259.784 155.256 235.553 154.512 235.553 154.512Z" fill="#163561"/>
<path d="M267.749 120.512L260.118 117.639L258.774 114.915L249.18 115.054L247.006 117.238L239.535 119.686L234.784 156.08C234.784 156.08 249.407 166.531 262.386 159.31C264.481 144.158 265.655 135.663 267.749 120.512Z" fill="#4285F4"/>
<path d="M221.039 138.919L233.597 146.303L244.061 132.306V123.526C244.061 122.715 243.822 121.921 243.371 121.246C242.956 120.623 242.379 120.124 241.701 119.804C241.023 119.485 240.271 119.356 239.525 119.433C238.78 119.509 238.07 119.788 237.471 120.239C236.872 120.689 236.408 121.295 236.128 121.99L230.694 135.492L222.986 133.215L221.039 138.919Z" fill="#4285F4"/>
<path d="M257.531 158.609C257.607 158.182 257.777 157.777 258.026 157.422C258.276 157.068 258.601 156.772 258.978 156.556C259.354 156.341 259.773 156.21 260.206 156.174C260.638 156.138 261.073 156.197 261.48 156.347L268.174 148.197L269.795 153.433L263.19 160.37C262.892 161.037 262.36 161.571 261.694 161.872C261.029 162.173 260.276 162.22 259.578 162.003C258.881 161.786 258.287 161.32 257.91 160.695C257.532 160.07 257.398 159.327 257.531 158.609L257.531 158.609Z" fill="#FFB6B6"/>
<path d="M267.515 157.326L263.285 153.096L270.271 140.579L260.139 129.223L260.724 124.641C260.859 123.587 261.281 122.589 261.945 121.759C262.522 121.037 263.264 120.463 264.109 120.087C264.953 119.71 265.875 119.541 266.798 119.594C267.721 119.647 268.618 119.92 269.414 120.39C270.21 120.86 270.882 121.515 271.373 122.298L279.295 139.912L279.255 139.97L267.515 157.326Z" fill="#4285F4"/>
<path d="M261.003 105.46C260.71 107.596 259.581 109.529 257.864 110.833C256.147 112.137 253.982 112.707 251.846 112.416C249.709 112.125 247.775 110.998 246.469 109.282C245.163 107.566 244.592 105.402 244.881 103.265L244.896 103.15C245.233 101.042 246.386 99.1507 248.105 97.8845C249.823 96.6182 251.971 96.0784 254.084 96.3815C256.198 96.6845 258.107 97.8062 259.401 99.5044C260.695 101.203 261.269 103.341 261 105.459L261.003 105.46Z" fill="#FFB6B6"/>
<path d="M258.932 109.65C259.35 108.801 259.779 107.89 259.662 106.952C259.544 106.013 258.624 105.116 257.72 105.395C257.179 105.562 256.771 106.095 256.206 106.123C255.429 106.16 254.983 105.271 254.741 104.531L253.755 101.518C252.809 102.256 251.712 102.775 250.542 103.04C249.371 103.304 248.157 103.307 246.986 103.048C246.071 102.839 245.146 102.431 244.61 101.661C244.073 100.891 244.076 99.6967 244.812 99.1145C245.173 98.829 245.654 98.7205 245.999 98.4159C246.213 98.2269 246.36 97.9741 246.419 97.6948C246.478 97.4155 246.446 97.1246 246.327 96.8651C246.208 96.6056 246.008 96.3914 245.758 96.2541C245.508 96.1167 245.22 96.0636 244.937 96.1026L247.418 95.7925L246.679 94.4554C246.96 94.6467 247.278 94.7772 247.612 94.8385C247.947 94.8998 248.29 94.8907 248.621 94.8116C249.288 94.6914 249.917 94.4166 250.57 94.2333C252.153 93.829 253.825 93.9526 255.331 94.5851C256.837 95.2176 258.096 96.3246 258.916 97.7378C259.526 97.5339 260.185 97.5204 260.803 97.6989C261.421 97.8775 261.971 98.2398 262.379 98.7378C263.043 99.5808 263.224 100.706 263.25 101.779C263.298 103.894 262.837 105.991 261.905 107.89C261.637 108.494 261.253 109.039 260.775 109.493C260.534 109.719 260.247 109.888 259.933 109.991C259.619 110.094 259.287 110.126 258.96 110.087" fill="#2F2E41"/>
<path d="M249.012 136.445L248.485 137.971L246.96 137.896C246.56 137.006 246.383 136.032 246.444 135.058C246.504 134.085 246.802 133.14 247.309 132.307V132.307L248.647 132.653L249.147 134.042C248.825 134.804 248.778 135.654 249.012 136.448L249.012 136.445Z" fill="white"/>
<path d="M258.39 134.723C258.519 135.804 258.35 136.9 257.903 137.893C257.456 138.885 256.748 139.738 255.853 140.358V140.358L254.152 140.155L254.015 138.632C254.75 138.265 255.335 137.656 255.674 136.908L252.475 136.684L252.64 134.317L258.391 134.719L258.39 134.723Z" fill="white"/>
<path d="M255.849 140.358C255.126 140.859 254.302 141.196 253.434 141.343C252.567 141.49 251.677 141.445 250.829 141.21C249.981 140.976 249.195 140.557 248.527 139.984C247.858 139.412 247.324 138.699 246.962 137.897L249.012 136.443C249.16 136.941 249.415 137.401 249.759 137.79C250.104 138.179 250.529 138.488 251.005 138.696C251.481 138.903 251.997 139.005 252.517 138.992C253.036 138.979 253.547 138.854 254.012 138.623L255.849 140.358Z" fill="white"/>
<path d="M256.571 131.091L254.521 132.546C254.087 132.231 253.588 132.019 253.06 131.924C252.532 131.829 251.99 131.855 251.473 131.998C250.957 132.142 250.479 132.4 250.077 132.754C249.674 133.108 249.356 133.548 249.146 134.041L247.308 132.307C247.775 131.542 248.407 130.891 249.158 130.403C249.909 129.914 250.76 129.6 251.649 129.483C252.537 129.367 253.44 129.45 254.292 129.729C255.144 130.007 255.922 130.473 256.571 131.091V131.091Z" fill="white"/>
<path d="M212.14 139.281C210.333 139.281 208.565 138.745 207.062 137.74C205.559 136.736 204.388 135.308 203.696 133.638C203.004 131.968 202.823 130.13 203.176 128.357C203.528 126.584 204.399 124.955 205.677 123.677C206.955 122.399 208.584 121.528 210.357 121.176C212.13 120.823 213.968 121.004 215.638 121.696C217.308 122.388 218.736 123.559 219.74 125.062C220.745 126.565 221.281 128.333 221.281 130.14C221.281 132.565 220.318 134.889 218.604 136.604C216.889 138.318 214.564 139.281 212.14 139.281Z" fill="#FFC107"/>
<path d="M215.747 129.239H213.042V126.534C213.042 126.295 212.947 126.065 212.778 125.896C212.609 125.727 212.379 125.632 212.14 125.632C211.901 125.632 211.672 125.727 211.503 125.896C211.334 126.065 211.239 126.295 211.239 126.534V129.239H208.534C208.295 129.239 208.065 129.334 207.896 129.503C207.727 129.672 207.632 129.901 207.632 130.14C207.632 130.379 207.727 130.609 207.896 130.778C208.065 130.947 208.295 131.042 208.534 131.042H211.239V133.747C211.239 133.986 211.334 134.215 211.503 134.384C211.672 134.553 211.901 134.648 212.14 134.648C212.379 134.648 212.609 134.553 212.778 134.384C212.947 134.215 213.042 133.986 213.042 133.747V131.042H215.747C215.986 131.042 216.215 130.947 216.384 130.778C216.554 130.609 216.649 130.379 216.649 130.14C216.649 129.901 216.554 129.672 216.384 129.503C216.215 129.334 215.986 129.239 215.747 129.239V129.239Z" fill="white"/>
<path d="M226.833 21.4009C227.265 20.6614 226.757 19.9642 226.449 19.7081C224.708 17.9993 221.042 14.3705 220.302 13.5253C219.563 12.6801 218.881 12.7649 218.633 12.913C218.257 12.5128 217.502 11.7269 217.493 11.7845C217.483 11.8421 216.985 12.3207 216.736 12.5528C216.945 12.7729 217.454 13.2996 217.829 13.6453C217.618 14.4233 218.053 14.9619 218.297 15.134C220.194 17.0549 224.125 21.0167 224.672 21.4969C225.176 22.1812 226.293 22.3253 226.833 21.4009Z" fill="#23649A"/>
<path d="M214.455 3.40446C213.451 3.07631 210.95 2.8522 208.981 4.58099C209.773 3.68058 211.466 1.99982 214.455 3.40446Z" fill="#23649A"/>
<path d="M215.133 11.5059C214.287 11.9237 212.093 12.5415 210.087 11.6706C210.924 12.1669 212.678 13.0541 215.133 11.5059Z" fill="#23649A"/>
<circle r="6.41448" transform="matrix(-1 0 0 1 212.414 7.41448)" stroke="#23649A" stroke-width="2"/>
<rect width="5.1139" height="4.66026" transform="matrix(0.687769 0.725929 -0.90595 0.423385 128.478 3)" fill="#30215A"/>
<rect width="8.45806" height="7.27681" rx="2" transform="matrix(0.837767 0.546027 -0.797383 0.603474 142.914 125.99)" fill="#30215A"/>
<rect width="7.9909" height="4.71696" rx="2" transform="matrix(0.982611 0.185676 -0.357731 0.933825 1.68744 107.655)" fill="#30215A"/>
</svg>
